<?xml version="1.0" standalone="no"?>
<!DOCTYPE svg PUBLIC "-//W3C//DTD SVG 20010904//EN"
 "http://www.w3.org/TR/2001/REC-SVG-20010904/DTD/svg10.dtd">
<svg version="1.0" xmlns="http://www.w3.org/2000/svg"
 width="499.000000pt" height="499.000000pt" viewBox="0 0 499.000000 499.000000"
 preserveAspectRatio="xMidYMid meet">

<g transform="translate(0.000000,499.000000) scale(0.100000,-0.100000)"
fill="#000000" stroke="none">
<path d="M850 3734 c0 -266 4 -412 11 -425 25 -48 110 -43 130 8 5 13 9 170 9
349 l0 324 324 0 c179 0 336 4 349 9 51 20 56 105 8 130 -13 7 -159 11 -425
11 l-406 0 0 -406z"/>
<path d="M3307 4129 c-46 -27 -41 -105 9 -128 17 -7 130 -11 349 -11 l325 0 0
-324 c0 -179 4 -336 9 -349 20 -51 105 -56 130 -8 7 13 11 159 11 425 l0 406
-407 0 c-267 -1 -414 -4 -426 -11z"/>
<path d="M2465 3721 c-49 -159 -143 -350 -307 -626 -102 -172 -221 -374 -256
-437 l-32 -58 49 0 49 0 58 108 c32 59 110 195 175 302 145 242 202 357 233
461 23 81 43 95 30 22 -22 -125 -60 -229 -176 -483 -72 -156 -178 -399 -178
-407 0 -2 227 -3 505 -3 l505 0 -32 58 c-32 56 -116 201 -271 462 -155 262
-260 482 -306 641 l-16 57 -30 -97z"/>
<path d="M602 2498 l3 -53 1890 0 1890 0 3 53 3 52 -1896 0 -1896 0 3 -52z"/>
<path d="M1745 2288 c-37 -133 -46 -307 -21 -417 64 -281 305 -496 624 -557
322 -62 667 86 835 357 68 110 89 182 95 322 5 123 -3 185 -41 320 l-22 77
-587 0 c-324 0 -588 -2 -588 -4 0 -2 -7 -40 -15 -83 -19 -99 -19 -289 0 -368
22 -92 20 -122 -14 -156 -39 -39 -105 -41 -144 -5 -35 32 -42 75 -42 246 1
145 17 255 52 338 l13 32 -58 0 -58 0 -29 -102z"/>
<path d="M893 1710 c-12 -5 -26 -18 -32 -29 -7 -13 -11 -157 -11 -425 l0 -406
406 0 c266 0 412 4 425 11 48 25 43 110 -8 130 -13 5 -170 9 -348 9 l-324 0
-3 340 c-3 367 -2 362 -58 374 -14 3 -35 1 -47 -4z"/>
<path d="M4032 1710 c-12 -5 -27 -21 -32 -35 -6 -15 -10 -162 -10 -351 l0
-324 -324 0 c-179 0 -336 -4 -349 -9 -51 -20 -56 -105 -8 -130 13 -7 159 -11
425 -11 l406 0 0 409 c0 375 -1 411 -17 429 -22 25 -60 35 -91 22z"/>
</g>
</svg>
